<?xml version="1.0" standalone="no"?>
<!DOCTYPE svg PUBLIC "-//W3C//DTD SVG 20010904//EN"
 "http://www.w3.org/TR/2001/REC-SVG-20010904/DTD/svg10.dtd">
<svg version="1.0" xmlns="http://www.w3.org/2000/svg"
 width="1891.000000pt" height="1891.000000pt" viewBox="0 0 1891.000000 1891.000000"
 preserveAspectRatio="xMidYMid meet">
<metadata>
Created by potrace 1.14, written by Peter Selinger 2001-2017
</metadata>
<g transform="translate(0.000000,1891.000000) scale(0.100000,-0.100000)"
fill="#000000" stroke="none">
<path d="M6800 18899 c-36 -5 -84 -11 -108 -13 -24 -2 -45 -6 -46 -8 -1 -1
-50 -100 -108 -218 -59 -118 -204 -413 -323 -655 -409 -829 -493 -1001 -520
-1066 -14 -35 -32 -77 -40 -94 -26 -60 -245 -577 -365 -860 -67 -159 -127
-303 -135 -320 -7 -16 -66 -156 -130 -310 -64 -154 -125 -299 -136 -322 -10
-24 -19 -45 -19 -48 0 -2 -11 -28 -24 -57 -13 -29 -83 -192 -154 -363 -150
-356 -339 -801 -392 -920 -5 -11 -23 -54 -40 -95 -17 -41 -38 -88 -45 -105 -7
-16 -87 -201 -178 -410 -90 -209 -173 -400 -184 -425 -12 -25 -47 -106 -78
-180 -32 -74 -66 -154 -76 -177 -11 -24 -27 -62 -38 -85 -10 -24 -60 -140
-111 -258 -50 -118 -100 -233 -110 -255 -9 -22 -24 -56 -33 -75 -8 -19 -45
-105 -82 -190 -215 -497 -300 -692 -326 -748 -16 -34 -29 -65 -29 -68 0 -3
-11 -29 -24 -57 -13 -29 -89 -203 -170 -387 -81 -184 -156 -355 -168 -380 -11
-25 -46 -103 -78 -175 -170 -384 -414 -888 -533 -1100 -18 -33 -49 -87 -67
-120 -58 -105 -259 -416 -330 -510 -79 -105 -120 -150 -175 -190 -22 -17 -42
-33 -45 -36 -3 -3 -57 -38 -121 -77 -191 -116 -305 -168 -473 -217 -92 -26
-102 -28 -201 -45 -94 -16 -109 -18 -121 -19 -6 -1 -10 -34 -9 -88 l1 -88
1678 0 c923 0 1680 4 1683 8 3 5 6 40 7 78 1 75 3 72 -64 83 -77 12 -99 16
-215 35 -66 11 -138 23 -160 26 -78 12 -268 65 -358 101 -281 111 -451 266
-501 458 -14 57 -16 220 -2 286 3 13 8 42 11 65 3 22 8 48 11 57 3 9 6 25 8
35 2 10 9 38 16 63 7 25 14 53 16 63 11 60 98 326 177 542 51 140 340 872 373
942 7 17 14 34 14 38 0 3 11 31 25 61 14 30 25 56 25 59 0 2 4 14 10 27 5 13
128 318 273 678 l263 655 2100 1 2101 1 21 -56 c45 -121 203 -538 217 -571 7
-19 39 -105 70 -190 31 -85 58 -162 62 -170 3 -8 7 -19 9 -25 1 -5 26 -73 54
-150 61 -166 283 -795 370 -1050 225 -659 411 -1137 511 -1315 71 -127 251
-313 354 -367 17 -8 37 -21 45 -28 60 -50 430 -207 543 -230 9 -2 21 -6 25 -9
5 -3 19 -7 33 -10 13 -3 84 -19 157 -36 132 -31 367 -73 472 -85 30 -3 66 -8
80 -10 14 -2 54 -7 90 -10 36 -3 76 -8 90 -10 14 -2 63 -7 110 -10 47 -4 105
-8 130 -10 79 -7 343 -18 403 -18 32 0 56 -1 55 -2 -2 -2 -41 -15 -88 -30
-114 -37 -317 -119 -398 -162 -92 -49 -244 -138 -268 -158 -7 -5 -29 -21 -49
-35 -239 -166 -466 -423 -588 -665 -53 -104 -65 -139 -98 -263 -56 -217 -55
-443 2 -677 116 -478 506 -836 1109 -1018 110 -33 281 -74 348 -83 29 -4 54
-10 57 -14 2 -4 -132 -92 -298 -196 -255 -159 -427 -271 -472 -306 -5 -5 -59
-45 -120 -91 -60 -45 -123 -94 -139 -107 -372 -315 -619 -617 -711 -872 -49
-136 -69 -250 -69 -403 0 -72 10 -214 18 -251 2 -12 7 -37 10 -55 26 -160 115
-374 222 -535 239 -358 688 -663 1269 -861 93 -31 383 -113 450 -127 17 -4 41
-9 55 -12 105 -23 303 -58 415 -74 44 -6 91 -13 105 -15 14 -2 50 -6 80 -10
30 -3 71 -8 90 -10 456 -54 1167 -63 1595 -20 39 4 86 8 105 10 69 7 260 36
326 49 12 2 38 7 58 10 19 3 57 11 83 17 27 6 57 13 68 15 11 2 29 6 40 8 11
2 49 12 85 21 36 9 73 19 83 21 40 7 289 88 407 131 1042 382 1815 1066 2163
1913 66 161 134 403 153 545 3 28 8 52 9 55 7 12 19 231 19 340 0 110 -9 278
-18 330 -3 14 -7 41 -10 60 -56 355 -215 713 -440 989 -102 124 -159 183 -280
287 -349 301 -822 511 -1286 569 -30 4 -62 9 -70 10 -78 14 -416 18 -1660 20
-1291 2 -1543 5 -1670 20 -19 2 -60 7 -90 10 -315 31 -613 133 -787 268 -54
41 -154 152 -181 199 -52 90 -78 251 -58 356 48 251 274 438 647 535 52 14
115 28 140 31 25 4 58 9 72 12 123 22 529 15 668 -11 9 -2 38 -6 65 -9 27 -3
74 -8 104 -12 30 -3 75 -8 100 -9 57 -5 467 -5 540 -1 122 7 270 17 297 21 15
2 62 6 103 10 41 3 82 8 90 10 8 2 35 7 60 10 39 5 90 14 245 40 77 13 231 50
345 82 443 123 827 316 1120 561 413 345 654 798 744 1402 29 190 29 666 1
811 -4 21 -12 63 -20 109 -9 48 -40 154 -62 215 -41 111 -82 189 -275 525 -11
19 -43 70 -70 113 -28 43 -49 80 -47 82 3 2 52 -23 109 -57 375 -215 623 -344
930 -480 280 -125 382 -157 497 -153 169 5 299 63 416 183 75 77 91 98 132
179 141 277 82 621 -145 843 -99 98 -181 142 -330 178 -14 4 -81 6 -150 7
-112 0 -157 -4 -239 -20 -67 -13 -170 -56 -359 -150 -267 -133 -340 -161 -482
-180 -42 -6 -335 -7 -370 -1 -14 2 -50 7 -80 11 -143 18 -244 51 -431 140
-189 90 -352 159 -489 207 -102 36 -303 97 -345 104 -16 3 -55 11 -85 19 -30
7 -75 16 -100 20 -25 4 -54 9 -65 12 -17 3 -122 18 -275 38 -41 5 -188 16
-280 21 -89 4 -506 4 -555 0 -22 -2 -83 -7 -135 -11 -52 -4 -102 -9 -112 -10
-9 -2 -38 -6 -65 -10 -93 -13 -150 -22 -198 -32 -86 -17 -119 -24 -180 -38
-38 -9 -77 -18 -85 -20 -51 -12 -280 -88 -415 -140 -113 -42 -421 -199 -537
-272 -112 -70 -257 -175 -318 -228 -424 -371 -684 -787 -786 -1259 -38 -172
-49 -290 -48 -503 l0 -172 -19 42 c-58 128 -247 609 -262 667 -4 15 -70 189
-180 475 -31 83 -70 184 -85 225 -44 120 -480 1283 -487 1300 -3 8 -7 20 -9
25 -2 6 -42 114 -89 240 -48 127 -124 334 -171 460 -46 127 -89 239 -93 250
-5 11 -42 108 -81 215 -84 230 -108 297 -121 328 -12 30 -52 138 -189 512 -62
168 -123 332 -136 365 -13 33 -48 128 -78 210 -73 198 -552 1484 -668 1790
-87 231 -195 508 -223 570 -7 17 -50 120 -95 230 -78 188 -160 385 -180 430
-4 11 -38 92 -75 180 -36 88 -70 169 -75 180 -12 26 -172 414 -238 575 -50
124 -183 461 -217 553 -20 53 -19 53 -145 36z m-846 -2347 c21 -53 101 -257
178 -452 77 -195 143 -364 148 -375 5 -11 23 -56 40 -100 17 -44 35 -89 39
-100 5 -11 42 -103 81 -205 105 -269 280 -710 295 -745 14 -31 96 -240 160
-405 20 -52 40 -104 45 -115 22 -47 442 -1126 540 -1385 26 -69 88 -231 137
-360 50 -129 115 -300 146 -380 l54 -145 -1960 -3 c-1078 -1 -1962 -1 -1964 1
-2 2 11 37 28 78 16 41 78 191 135 334 58 143 111 274 118 290 8 17 26 62 41
100 15 39 33 84 40 100 8 17 57 138 110 270 53 132 101 249 105 260 5 11 30
72 55 135 25 63 50 124 55 135 5 11 66 160 136 330 124 306 363 882 389 940 8
17 57 134 110 260 54 127 110 259 125 295 35 80 193 460 333 800 58 140 126
302 152 360 25 58 53 122 62 143 8 20 18 37 22 37 3 0 23 -44 45 -98z m8021
-5227 c217 -32 403 -99 578 -207 288 -177 484 -414 645 -778 59 -134 125 -377
148 -540 3 -19 7 -48 9 -65 25 -177 25 -473 0 -722 -8 -76 -53 -316 -76 -403
-11 -41 -21 -82 -23 -91 -3 -9 -16 -49 -31 -90 -14 -41 -27 -78 -29 -84 -1 -5
-10 -27 -19 -49 -9 -21 -17 -41 -17 -43 0 -3 -25 -55 -56 -116 -100 -201 -241
-396 -381 -528 -74 -70 -215 -179 -231 -179 -6 0 -12 -4 -14 -9 -5 -13 -146
-87 -229 -120 -298 -117 -674 -127 -983 -24 -244 80 -471 241 -667 473 -59 70
-139 176 -139 184 0 3 -18 36 -41 73 -22 36 -52 92 -66 122 -52 114 -57 126
-60 136 -2 6 -21 62 -43 127 -21 64 -50 172 -64 240 -27 137 -33 181 -52 383
-6 72 -7 364 0 420 2 22 7 71 11 108 3 37 8 76 10 85 1 9 6 42 11 72 4 30 8
57 9 60 1 5 21 96 30 138 3 12 7 30 9 40 33 146 122 384 198 531 45 85 143
248 158 261 3 3 29 34 57 70 63 80 190 203 275 266 203 149 412 235 638 260
30 4 57 8 59 10 6 5 331 -4 376 -11z m505 -7329 c212 -8 324 -13 430 -21 41
-4 97 -8 125 -10 83 -6 166 -16 265 -30 52 -8 113 -16 135 -20 23 -3 52 -8 65
-11 14 -3 41 -8 60 -11 199 -30 543 -155 693 -250 219 -140 414 -452 476 -761
28 -141 33 -182 36 -327 6 -308 -45 -550 -170 -810 -140 -290 -424 -599 -753
-819 -140 -93 -337 -194 -462 -236 -101 -34 -304 -85 -373 -95 -23 -3 -49 -8
-57 -10 -15 -4 -25 -5 -160 -24 -198 -27 -362 -35 -665 -36 -381 0 -530 17
-847 96 -479 120 -925 342 -1243 618 -97 84 -269 268 -343 367 -126 168 -235
402 -258 552 -3 20 -10 57 -16 82 -16 72 -18 354 -3 450 30 192 73 323 158
484 120 226 235 351 448 485 160 100 529 243 664 256 22 3 56 7 75 10 19 2 54
7 78 10 23 3 59 7 80 10 20 2 69 7 107 10 39 4 81 8 95 10 14 2 61 7 105 10
44 3 100 8 125 10 25 3 108 7 185 10 77 4 141 7 142 8 4 5 633 -1 803 -7z"/>
</g>
</svg>
